<svg width="40" height="40" viewBox="0 0 40 40" fill="none" xmlns="http://www.w3.org/2000/svg">
<path fill-rule="evenodd" clip-rule="evenodd" d="M20 40C31.0457 40 40 31.0457 40 20C40 8.9543 31.0457 0 20 0C8.9543 0 0 8.9543 0 20C0 31.0457 8.9543 40 20 40Z" fill="#28B0FC"/>
<path fill-rule="evenodd" clip-rule="evenodd" d="M25 16.1237H21.5944V13.8404C21.5944 12.9829 22.1503 12.7829 22.5419 12.7829C22.9326 12.7829 24.9452 12.7829 24.9452 12.7829V9.01321L21.6353 9C17.9611 9 17.1249 11.8116 17.1249 13.6108V16.1237H15V20.0082H17.1249C17.1249 24.9934 17.1249 31 17.1249 31H21.5944C21.5944 31 21.5944 24.9342 21.5944 20.0082H24.6102L25 16.1237Z" fill="white"/>
</svg>
