<svg width="40" height="40" viewBox="0 0 40 40" fill="none" xmlns="http://www.w3.org/2000/svg">
<path fill-rule="evenodd" clip-rule="evenodd" d="M20 40C31.0457 40 40 31.0457 40 20C40 8.9543 31.0457 0 20 0C8.9543 0 0 8.9543 0 20C0 31.0457 8.9543 40 20 40Z" fill="#28B0FC"/>
<path d="M31.9766 15.0561C31.9204 13.7809 31.7142 12.9042 31.4187 12.1445C31.114 11.3381 30.6452 10.6162 30.0309 10.016C29.4307 9.40652 28.704 8.93292 27.907 8.63294C27.143 8.33753 26.2708 8.13131 24.9956 8.07509C23.7109 8.0141 23.303 8 20.0446 8C16.7861 8 16.3783 8.0141 15.0983 8.07033C13.8231 8.12655 12.9464 8.33295 12.1869 8.62817C11.3804 8.93292 10.6584 9.40176 10.0583 10.016C9.44876 10.6162 8.97534 11.3429 8.67517 12.1399C8.37977 12.9042 8.17355 13.7761 8.11732 15.0513C8.05634 16.336 8.04224 16.7439 8.04224 20.0023C8.04224 23.2608 8.05634 23.6686 8.11256 24.9486C8.16879 26.2238 8.37519 27.1005 8.67059 27.8602C8.97534 28.6666 9.44876 29.3885 10.0583 29.9887C10.6584 30.5982 11.3851 31.0718 12.1821 31.3718C12.9464 31.6672 13.8183 31.8734 15.0937 31.9296C16.3735 31.986 16.7816 31.9999 20.04 31.9999C23.2984 31.9999 23.7063 31.986 24.9863 31.9296C26.2615 31.8734 27.1382 31.6672 27.8977 31.3718C29.5106 30.7482 30.7858 29.4729 31.4094 27.8602C31.7046 27.096 31.911 26.2238 31.9673 24.9486C32.0235 23.6686 32.0376 23.2608 32.0376 20.0023C32.0376 16.7439 32.0328 16.336 31.9766 15.0561ZM29.8153 24.8549C29.7637 26.027 29.5668 26.6599 29.4027 27.0819C28.9995 28.1274 28.1696 28.9572 27.1241 29.3605C26.7021 29.5246 26.0646 29.7215 24.8971 29.7729C23.6312 29.8293 23.2516 29.8433 20.0493 29.8433C16.8471 29.8433 16.4627 29.8293 15.2014 29.7729C14.0293 29.7215 13.3964 29.5246 12.9744 29.3605C12.4541 29.1682 11.9805 28.8634 11.5961 28.4649C11.1976 28.0758 10.8928 27.6069 10.7005 27.0866C10.5364 26.6647 10.3396 26.027 10.2881 24.8596C10.2317 23.5937 10.2178 23.2139 10.2178 20.0117C10.2178 16.8095 10.2317 16.425 10.2881 15.1639C10.3396 13.9918 10.5364 13.3589 10.7005 12.9369C10.8928 12.4165 11.1976 11.943 11.6009 11.5584C11.9898 11.1599 12.4587 10.8552 12.9792 10.6631C13.4011 10.499 14.0388 10.3021 15.2062 10.2504C16.472 10.1942 16.8519 10.1801 20.0539 10.1801C23.2609 10.1801 23.6406 10.1942 24.9019 10.2504C26.074 10.3021 26.7069 10.499 27.1288 10.6631C27.6492 10.8552 28.1228 11.1599 28.5072 11.5584C28.9057 11.9476 29.2104 12.4165 29.4027 12.9369C29.5668 13.3589 29.7637 13.9964 29.8153 15.1639C29.8716 16.4298 29.8857 16.8095 29.8857 20.0117C29.8857 23.2139 29.8716 23.589 29.8153 24.8549Z" fill="white"/>
<path d="M20.0444 13.8372C16.6407 13.8372 13.8792 16.5986 13.8792 20.0024C13.8792 23.4063 16.6407 26.1677 20.0444 26.1677C23.4483 26.1677 26.2097 23.4063 26.2097 20.0024C26.2097 16.5986 23.4483 13.8372 20.0444 13.8372ZM20.0444 24.0017C17.8363 24.0017 16.0452 22.2107 16.0452 20.0024C16.0452 17.7941 17.8363 16.0032 20.0444 16.0032C22.2527 16.0032 24.0437 17.7941 24.0437 20.0024C24.0437 22.2107 22.2527 24.0017 20.0444 24.0017Z" fill="white"/>
<path d="M27.893 13.5932C27.893 14.3881 27.2485 15.0325 26.4535 15.0325C25.6586 15.0325 25.0142 14.3881 25.0142 13.5932C25.0142 12.7982 25.6586 12.1539 26.4535 12.1539C27.2485 12.1539 27.893 12.7982 27.893 13.5932Z" fill="white"/>
</svg>
