<svg width="40" height="40" viewBox="0 0 40 40" fill="none" xmlns="http://www.w3.org/2000/svg">
<path fill-rule="evenodd" clip-rule="evenodd" d="M20 40C31.0457 40 40 31.0457 40 20C40 8.9543 31.0457 0 20 0C8.9543 0 0 8.9543 0 20C0 31.0457 8.9543 40 20 40Z" fill="#28B0FC"/>
<g clip-path="url(#clip0)">
<path d="M30.995 29V28.9991H31V21.6641C31 18.0758 30.2275 15.3116 26.0325 15.3116C24.0158 15.3116 22.6625 16.4183 22.11 17.4675H22.0517V15.6466H18.0742V28.9991H22.2158V22.3875C22.2158 20.6466 22.5458 18.9633 24.7017 18.9633C26.8258 18.9633 26.8575 20.95 26.8575 22.4991V29H30.995Z" fill="white"/>
<path d="M11.33 15.6475H15.4767V29H11.33V15.6475Z" fill="white"/>
<path d="M13.4017 9C12.0758 9 11 10.0758 11 11.4017C11 12.7275 12.0758 13.8258 13.4017 13.8258C14.7275 13.8258 15.8033 12.7275 15.8033 11.4017C15.8025 10.0758 14.7267 9 13.4017 9V9Z" fill="white"/>
</g>
<defs>
<clipPath id="clip0">
<rect width="20" height="20" fill="white" transform="translate(11 9)"/>
</clipPath>
</defs>
</svg>
